#!OML:ASF G:\ViconDB\ViconDB\414\test\team2\shane.ASF
:FULLY-SPECIFIED
:DEGREES
329
root 17.2008 16.5903 2.87293 -183.999 18.6795 -168.334
lowerback 8.69588 -2.76514 3.75441
upperback 2.90707 -2.8549 4.33834
thorax -1.82388 -1.25725 2.67035
lowerneck -15.9297 -4.86879 -8.62258
upperneck 23.4762 -5.3971 5.54026
head 10.5683 -2.38482 2.71473
rclavicle -3.74402e-014 4.51428e-014
rhumerus -41.7564 -10.3983 -75.3298
rradius 21.2348
rwrist 49.7913
rhand -29.04 -14.1431
rfingers 7.12502
rthumb -2.39037 -44.1094
lclavicle -3.74402e-014 4.51428e-014
lhumerus -25.6243 -10.7677 95.1331
lradius 24.5787
lwrist -22.8568
lhand -40.4888 6.3855
lfingers 7.12502
lthumb -13.439 35.932
rfemur -5.34784 -22.3576 21.2492
rtibia 31.4884
rfoot -20.5715 12.6001
rtoes -4.71686
lfemur 17.5796 -8.58797 -5.39535
ltibia 34.3128
lfoot 1.5563 -40.3848
ltoes -18.3849
330
root 17.2907 16.6008 2.75984 -184.061 18.0749 -168.149
lowerback 8.85743 -2.67707 4.23314
upperback 2.94005 -2.66829 4.34812
thorax -1.90449 -1.15554 2.40083
lowerneck -15.746 -5.00236 -8.64359
upperneck 23.004 -5.66871 5.79833
head 10.3911 -2.49125 2.76683
rclavicle -3.66366e-014 3.36319e-014
rhumerus -41.0802 -8.64527 -77.0844
rradius 21.9961
rwrist 46.9962
rhand -28.8645 -14.1804
rfingers 7.12502
rthumb -2.22081 -44.1486
lclavicle -3.66366e-014 3.36319e-014
lhumerus -26.1578 -10.3638 94.8941
lradius 23.7753
lwrist -23.2817
lhand -40.1987 6.51476
lfingers 7.12502
lthumb -13.1593 36.0795
rfemur -4.41823 -23.0059 21.2512
rtibia 31.1499
rfoot -20.9766 12.5708
rtoes -4.86243
lfemur 15.5562 -8.34703 -4.58179
ltibia 38.0749
lfoot 0.381247 -39.6552
ltoes -17.127
331
root 17.3767 16.6122 2.64988 -184.178 17.4223 -168.174
lowerback 9.00404 -2.56259 4.46382
upperback 2.97176 -2.47218 4.3631
thorax -1.9641 -1.05168 2.27247
lowerneck -15.64 -5.12565 -8.57054
upperneck 22.6308 -5.88655 5.84231
head 10.2522 -2.58828 2.73471
rclavicle 1.90931e-014 -3.98796e-014
rhumerus -40.2983 -7.7917 -78.0995
rradius 22.3423
rwrist 46.4009
rhand -29.1659 -14.5319
rfingers 7.12502
rthumb -2.5119 -44.4968
lclavicle 1.90931e-014 -3.98796e-014
lhumerus -26.7861 -10.3681 94.9102
lradius 23.3092
lwrist -23.2353
lhand -39.9048 6.93291
lfingers 7.12502
lthumb -12.876 36.5157
rfemur -3.47146 -23.7283 21.0262
rtibia 30.6537
rfoot -21.1038 12.6993
rtoes -4.55566
lfemur 13.5144 -8.06659 -4.0399
ltibia 41.6386
lfoot -2.436 -37.9758
ltoes -17.476
332
root 17.4658 16.6232 2.54076 -184.421 16.8173 -168.161
lowerback 9.26706 -2.44843 4.69229
upperback 3.08594 -2.26909 4.32338
thorax -2.00293 -0.941771 2.0895
lowerneck -15.4873 -5.21204 -8.37956
upperneck 22.1463 -6.09791 5.93202
head 10.0617 -2.67036 2.70028
rclavicle 3.00627e-014 -2.39225e-014
rhumerus -39.4021 -6.73567 -79.3226
rradius 22.846
rwrist 44.9019
rhand -29.0677 -14.79
rfingers 7.12502
rthumb -2.41712 -44.756
lclavicle 3.00627e-014 -2.39225e-014
lhumerus -27.2273 -10.9437 94.8146
lradius 23.0082
lwrist -21.8504
lhand -39.2892 6.94341
lfingers 7.12502
lthumb -12.2825 36.5627
rfemur -2.31627 -24.236 20.8046
rtibia 30.0604
rfoot -21.2639 12.6366
rtoes -4.53638
lfemur 11.7001 -7.62544 -3.43979
ltibia 44.9711
lfoot -5.50943 -35.7956
ltoes -17.4321
333
root 17.5517 16.6366 2.42691 -184.599 16.4494 -168.107
lowerback 9.42358 -2.24838 4.93116
upperback 3.18792 -1.95309 4.35877
thorax -1.99105 -0.774071 1.96126
lowerneck -15.3878 -5.35685 -8.49392
upperneck 21.8264 -6.34536 6.19892
head 9.96214 -2.77091 2.7764
rclavicle 4.60374e-014 -7.96987e-014
rhumerus -38.5509 -6.08846 -80.0403
rradius 23.0572
rwrist 44.8122
rhand -29.3953 -15.0464
rfingers 7.12502
rthumb -2.73345 -45.0086
lclavicle 4.60374e-014 -7.96987e-014
lhumerus -27.6335 -10.5 94.5707
lradius 22.1898
lwrist -22.4834
lhand -39.3291 6.85436
lfingers 7.12502
lthumb -12.321 36.4713
rfemur -1.17876 -24.4119 20.7048
rtibia 29.3451
rfoot -21.318 12.4784
rtoes -4.48529
lfemur 9.90183 -6.63689 -2.70128
ltibia 47.9435
lfoot -8.51815 -33.9768
ltoes -17.3204
334
root 17.6315 16.6508 2.3155 -184.714 16.1217 -168.055
lowerback 9.44213 -2.05279 5.26127
upperback 3.31344 -1.65867 4.2862
thorax -1.88197 -0.61833 1.6667
lowerneck -15.0981 -5.48365 -8.40828
upperneck 21.3136 -6.6309 6.47915
head 9.75565 -2.87739 2.81988
rclavicle -2.07878e-014 -1.52443e-014
rhumerus -37.4804 -5.47036 -80.9756
rradius 23.3084
rwrist 43.596
rhand -29.3895 -15.0838
rfingers 7.12502
rthumb -2.72787 -45.0461
lclavicle -2.07878e-014 -1.52443e-014
lhumerus -28.2118 -10.3014 94.2323
lradius 21.6528
lwrist -22.9805
lhand -39.2674 7.08404
lfingers 7.12502
lthumb -12.2615 36.7046
rfemur -0.126662 -24.309 20.6879
rtibia 28.5876
rfoot -21.3115 12.1183
rtoes -4.27675
lfemur 8.10303 -5.7335 -2.02961
ltibia 50.5322
lfoot -10.4273 -32.0831
ltoes -16.308
335
root 17.7131 16.6748 2.20275 -184.885 15.8237 -168.202
lowerback 9.46968 -1.8266 5.24032
upperback 3.44195 -1.36037 4.22781
thorax -1.76172 -0.463737 1.58284
lowerneck -14.9748 -5.5574 -8.19528
upperneck 20.9515 -6.81368 6.56145
head 9.61457 -2.94455 2.78617
rclavicle 2.3966e-014 2.32827e-014
rhumerus -36.2763 -4.92528 -81.7432
rradius 23.3983
rwrist 42.5
rhand -29.1937 -15.2344
rfingers 7.12502
rthumb -2.53881 -45.1991
lclavicle 2.3966e-014 2.32827e-014
lhumerus -28.672 -10.133 93.8583
lradius 20.9281
lwrist -23.0937
lhand -39.2808 6.72584
lfingers 7.12502
lthumb -12.2744 36.3456
rfemur 0.976319 -24.1257 20.5122
rtibia 27.7451
rfoot -21.3518 11.6445
rtoes -4.21755
lfemur 6.41524 -4.96567 -1.69042
ltibia 52.6812
lfoot -11.7508 -30.3085
ltoes -14.8264
336
root 17.7971 16.6912 2.09181 -185.079 15.6445 -168.508
lowerback 9.38941 -1.54256 5.00046
upperback 3.59902 -1.02386 4.13505
thorax -1.54807 -0.292693 1.57932
lowerneck -14.7534 -5.61402 -8.25005
upperneck 20.557 -6.98 6.96494
head 9.46621 -2.99167 2.91365
rclavicle -2.22623e-014 -7.48424e-014
rhumerus -35.0301 -5.42921 -81.8769
rradius 23.1859
rwrist 43.4945
rhand -29.3868 -15.1055
rfingers 7.12502
rthumb -2.72523 -45.0678
lclavicle -2.22623e-014 -7.48424e-014
lhumerus -29.5221 -10.6303 93.7287
lradius 20.8423
lwrist -22.8511
lhand -39.2841 7.49181
lfingers 7.12502
lthumb -12.2776 37.1114
rfemur 2.01195 -23.6771 20.2649
rtibia 26.9303
rfoot -21.3628 11.0213
rtoes -4.22863
lfemur 4.87746 -3.9965 -1.52751
ltibia 54.4586
lfoot -13.3634 -28.6262
ltoes -15.1736
337
root 17.8755 16.7115 1.98286 -185.237 15.4036 -168.69
lowerback 9.33339 -1.35128 4.9414
upperback 3.80063 -0.787268 4.01896
thorax -1.30664 -0.166282 1.46357
lowerneck -14.7129 -5.65153 -8.25574
upperneck 20.2914 -7.11959 7.36495
head 9.39359 -3.01834 3.03327
rclavicle 3.90426e-014 3.29486e-014
rhumerus -33.4342 -5.55842 -82.4262
rradius 22.7931
rwrist 43.475
rhand -29.5165 -15.103
rfingers 7.12502
rthumb -2.8505 -45.0637
lclavicle 3.90426e-014 3.29486e-014
lhumerus -29.8938 -10.3659 93.2473
lradius 20.2223
lwrist -22.6294
lhand -39.6042 7.57823
lfingers 7.12502
lthumb -12.5862 37.1791
rfemur 3.00388 -23.1367 20.1877
rtibia 26.1388
rfoot -21.3532 10.2129
rtoes -4.36792
lfemur 3.27468 -2.95997 -1.20134
ltibia 55.871
lfoot -14.7012 -27.3617
ltoes -15.3443
338
root 17.9498 16.7262 1.8735 -185.388 15.1714 -169.044
lowerback 9.22069 -1.09646 4.87011
upperback 3.95372 -0.486392 3.77409
thorax -1.08393 -0.0143468 1.21559
lowerneck -14.465 -5.68959 -7.87546
upperneck 19.885 -7.27069 7.37226
head 9.20433 -3.07068 2.95272
rclavicle -7.11276e-015 4.91992e-014
rhumerus -31.9489 -6.2955 -82.7286
rradius 22.4013
rwrist 44.3604
rhand -29.5751 -15.4221
rfingers 7.12502
rthumb -2.90715 -45.382
lclavicle -7.11276e-015 4.91992e-014
lhumerus -30.3326 -10.0116 92.5315
lradius 19.5632
lwrist -22.9728
lhand -39.575 7.60333
lfingers 7.12502
lthumb -12.5581 37.2059
rfemur 3.91183 -22.8837 19.8635
rtibia 25.4037
rfoot -21.3517 9.69974
rtoes -4.70196
lfemur 1.68656 -1.9676 -1.14653
ltibia 56.9699
lfoot -15.7997 -26.4651
ltoes -16.0296
339
root 18.024 16.7332 1.76615 -185.641 15.0858 -169.402
lowerback 9.32422 -0.85489 4.66369
upperback 4.12679 -0.183748 3.62301
thorax -0.956975 0.140703 1.14403
lowerneck -14.706 -5.68713 -7.83625
upperneck 19.9607 -7.31072 7.58798
head 9.28565 -3.05501 3.01243
rclavicle -1.00138e-014 -1.17283e-014
rhumerus -30.4592 -6.20364 -83.261
rradius 22.1813
rwrist 44.6351
rhand -29.9188 -15.7091
rfingers 7.12502
rthumb -3.23904 -45.6643
lclavicle -1.00138e-014 -1.17283e-014
lhumerus -30.8103 -9.34735 91.85
lradius 19.001
lwrist -23.3256
lhand -39.5576 7.90579
lfingers 7.12502
lthumb -12.5413 37.5094
rfemur 4.91653 -22.2512 19.576
rtibia 24.6377
rfoot -21.3533 8.93538
rtoes -5.42098
lfemur 0.416259 -1.38229 -1.37719
ltibia 57.7269
lfoot -16.9538 -25.1744
ltoes -16.1052
340
root 18.0954 16.7453 1.65545 -185.81 14.9524 -169.728
lowerback 9.47387 -0.596264 4.54285
upperback 4.14276 0.147021 3.45101
thorax -1.01789 0.300857 1.00002
lowerneck -14.4481 -5.73574 -7.6744
upperneck 19.8178 -7.42501 7.61185
head 9.19269 -3.09785 2.98248
rclavicle -8.57259e-016 -1.78906e-015
rhumerus -29.1833 -6.87882 -83.5347
rradius 21.9345
rwrist 45.3357
rhand -29.6685 -15.6162
rfingers 7.12502
rthumb -2.99728 -45.5749
lclavicle -8.57259e-016 -1.78906e-015
lhumerus -31.5657 -8.4807 91.0648
lradius 18.6005
lwrist -23.5056
lhand -39.5942 7.42204
lfingers 7.12502
lthumb -12.5765 37.0235
rfemur 5.83428 -21.7398 19.3131
rtibia 23.9737
rfoot -21.28 8.44365
rtoes -5.03256
lfemur -0.989648 -0.626823 -1.55465
ltibia 58.2058
lfoot -17.8659 -24.3559
ltoes -15.8011
341
root 18.1678 16.7569 1.54276 -186.108 14.5237 -170.066
lowerback 9.73797 -0.475902 4.39684
upperback 4.20422 0.307986 3.29773
thorax -1.09669 0.380714 0.906106
lowerneck -14.5475 -5.70418 -7.56186
upperneck 19.9324 -7.39007 7.56415
head 9.24112 -3.07121 2.95177
rclavicle -3.66137e-014 -8.07066e-014
rhumerus -27.7056 -7.91654 -83.6363
rradius 21.4658
rwrist 46.3688
rhand -29.9124 -15.7265
rfingers 7.12502
rthumb -3.23286 -45.6817
lclavicle -3.66137e-014 -8.07066e-014
lhumerus -32.225 -8.19788 90.469
lradius 18.1822
lwrist -23.4369
lhand -39.3791 7.6784
lfingers 7.12502
lthumb -12.3692 37.2925
rfemur 6.88075 -21.3828 18.9988
rtibia 23.3375
rfoot -21.2908 7.65362
rtoes -5.14266
lfemur -2.2939 -0.332293 -1.86507
ltibia 58.3438
lfoot -18.7191 -23.7336
ltoes -16.1617
342
root 18.2311 16.7647 1.43455 -186.197 14.4143 -170.376
lowerback 10.0191 -0.210002 4.43033
upperback 4.10397 0.667816 3.09557
thorax -1.34622 0.549971 0.637393
lowerneck -14.4085 -5.7261 -7.4195
upperneck 20.0516 -7.45019 7.55952
head 9.25579 -3.08227 2.9236
rclavicle 7.04443e-015 1.05356e-014
rhumerus -27.0856 -6.22066 -84.5681
rradius 22.2303
rwrist 44.6666
rhand -30.2436 -16.0111
rfingers 7.12502
rthumb -3.55272 -45.9612
lclavicle 7.04443e-015 1.05356e-014
lhumerus -33.1088 -8.15729 89.9402
lradius 17.8958
lwrist -22.9917
lhand -39.2557 7.31672
lfingers 7.12502
lthumb -12.2502 36.9379
rfemur 7.59394 -20.7025 18.8807
rtibia 22.7123
rfoot -21.2053 6.75412
rtoes -5.54363
lfemur -3.65861 0.413897 -2.08785
ltibia 58.2548
lfoot -19.2934 -23.2742
ltoes -15.0604
343
root 18.2943 16.7693 1.32286 -186.456 14.1476 -170.751
lowerback 10.4128 -0.0116168 4.24734
upperback 4.0867 0.935008 2.95934
thorax -1.5751 0.677546 0.564951
lowerneck -14.4185 -5.74617 -7.33591
upperneck 20.2045 -7.47485 7.47789
head 9.30599 -3.08847 2.88015
rclavicle -7.57867e-015 -5.56597e-015
rhumerus -25.6234 -7.44074 -84.5776
rradius 21.6365
rwrist 46.5328
rhand -29.7372 -16.0431
rfingers 7.12502
rthumb -3.06366 -46.0009
lclavicle -7.57867e-015 -5.56597e-015
lhumerus -33.8012 -7.27381 89.0961
lradius 17.4643
lwrist -24.0997
lhand -39.0886 7.36762
lfingers 7.12502
lthumb -12.0891 36.9984
rfemur 8.50529 -20.1164 18.6061
rtibia 22.1397
rfoot -21.1423 5.86187
rtoes -5.90263
lfemur -4.84342 0.63362 -2.64492
ltibia 57.8582
lfoot -20.2298 -22.5575
ltoes -16.1841
